# xmcd
#
# Track frame offsets:
#	182
#	12822
#	30377
#	45442
#	65770
#	85605
#	86752
#	102480
#	129642
#	132177
#	151652
#	166672
#	183620
#	198187
#	200185
#	233012
#	234650
#	252670
#	272722
#	277202
#	295945
#
# Disc length: 4227 seconds
#
# Revision: 0
# Processed by: cddbd v1.5.2PL0 Copyright (c) Steve Scherf et al.
# Submitted via: EZCDAudioConverter 2.1.7.1
#
DISCID=2a108115
DTITLE=V/A - Red Hot and Rio
DYEAR=1996
DGENRE=
TTITLE0=Money Mark - Use Your Head
TTITLE1=Everything But The Girl - Corcovado
TTITLE2=Astrud Gilberto and George Michael - Desafinado
TTITLE3=PM Dawn with Flora Purim and Airto - Non-Fiction Burning
TTITLE4=Crystal Waters - The Boy From Ipanema
TTITLE5=Interlude
TTITLE6=Maxwell - Segurança
TTITLE7=Cesária Évora, Caetano Veloso and Ryuichi Sakamoto - É Preciso Perdoar
TTITLE8=Interlude
TTITLE9=Incognito with Omar and Anna Caram - Water To Drink
TTITLE10=Milton Nascimento - Dancing...
TTITLE11=Antonio Carlos Jobim and Sting - How Insensitive
TTITLE12=David Byrne and Marisa Monte - Waters Of March
TTITLE13=Interlude
TTITLE14=Stereolab and Herbie Mann - One Note Samba/Surfboard
TTITLE15=Interlude
TTITLE16=Mad Professor - Black Orpheus Dub
TTITLE17=Chico Science X DJ Soul Slinger - Maracatú Atomico
TTITLE18=Funk N' Lata - Sambadrome
TTITLE19=Gilberto Gil - Refazenda
TTITLE20=Cazuza and Bebel Gilberto - Preciso Dizer Que Te Amo
EXTD=
EXTT0=
EXTT1=
EXTT2=
EXTT3=
EXTT4=
EXTT5=
EXTT6=
EXTT7=
EXTT8=
EXTT9=
EXTT10=
EXTT11=
EXTT12=
EXTT13=
EXTT14=
EXTT15=
EXTT16=
EXTT17=
EXTT18=
EXTT19=
EXTT20=
PLAYORDER=
